<svg xmlns="http://www.w3.org/2000/svg" width="920" height="260" viewBox="0 0 920 260" role="img" aria-label="AI Growth Systems logo lockup">
  <rect x="0" y="0" width="920" height="260" rx="28" fill="#F7F3EA" stroke="#D8D2C4" stroke-width="2"/>
  <svg x="58" y="50" xmlns="http://www.w3.org/2000/svg" width="160" height="160" viewBox="0 0 160 160" role="img" aria-label="AI Growth Systems logo mark">
  
  <path d="M 51.07 114.47 A 45 45 0 0 1 35.03 78.43" fill="none" stroke="#B98219" stroke-width="10" stroke-linecap="round"/>
  <path d="M 114.47 108.93 A 45 45 0 0 1 78.43 124.97" fill="none" stroke="#2F68D8" stroke-width="10" stroke-linecap="round"/>
  <path d="M 108.93 45.53 A 45 45 0 0 1 124.97 81.57" fill="none" stroke="#C95F36" stroke-width="10" stroke-linecap="round"/>
  <path d="M 45.53 51.07 A 45 45 0 0 1 81.57 35.03" fill="none" stroke="#0B7A55" stroke-width="10" stroke-linecap="round"/>
  <circle cx="80" cy="80" r="13" fill="#EFE8DA"/>
  <path d="M 73 80 H 87 M 80 73 V 87" fill="none" stroke="#0B7A55" stroke-width="5" stroke-linecap="round"/>
</svg>

  <text x="260" y="122" fill="#151A16" font-family="Inter, Helvetica, Arial, sans-serif" font-size="56" font-weight="600" letter-spacing="0">AI Growth Systems</text>
  <text x="263" y="162" fill="#5E665E" font-family="'IBM Plex Mono', Menlo, Consolas, monospace" font-size="18" letter-spacing="1.4">BY CEDRIC DE SCHAUT</text>
</svg>
